# xmcd CD database file
#
# Track frame offsets:
#	150
#	36810
#	64692
#	83009
#	109970
#	136397
#	159222
#	192292
#	212025
#
# Disc length: 3074 seconds
#
# Revision: 0
# Processed by: cddbd v1.5.2PL0 Copyright (c) Steve Scherf et al.
# Submitted via: CDex 1.51
#
DISCID=740c0009
DTITLE=Jangeun Bae Trio - Go
DYEAR=2008
DGENRE=Jazz
TTITLE0=Windows
TTITLE1=Easy Song
TTITLE2=Spring in Hometown
TTITLE3=Go
TTITLE4=Joga
TTITLE5=Notes And Rests
TTITLE6=Infinite Patience
TTITLE7=Giant Steps
TTITLE8=Go (Trio version)
EXTD=YEAR: 2008
EXTT0=
EXTT1=
EXTT2=
EXTT3=
EXTT4=
EXTT5=
EXTT6=
EXTT7=
EXTT8=
PLAYORDER=
